<?xml version="1.0" encoding="UTF-8" standalone="no"?>
<svg
   xmlns:dc="http://purl.org/dc/elements/1.1/"
   xmlns:cc="http://creativecommons.org/ns#"
   xmlns:rdf="http://www.w3.org/1999/02/22-rdf-syntax-ns#"
   xmlns:svg="http://www.w3.org/2000/svg"
   xmlns="http://www.w3.org/2000/svg"
   xmlns:sodipodi="http://sodipodi.sourceforge.net/DTD/sodipodi-0.dtd"
   xmlns:inkscape="http://www.inkscape.org/namespaces/inkscape"
   fill="#FFFFFF"
   height="48"
   viewBox="0 0 24 24"
   width="48"
   id="svg3336"
   version="1.1"
   inkscape:version="0.91 r13725"
   sodipodi:docname="ic_play_circle_outline_white_48px_2x.svg">
  <metadata
     id="metadata3346">
    <rdf:RDF>
      <cc:Work
         rdf:about="">
        <dc:format>image/svg+xml</dc:format>
        <dc:type
           rdf:resource="http://purl.org/dc/dcmitype/StillImage" />
        <dc:title></dc:title>
      </cc:Work>
    </rdf:RDF>
  </metadata>
  <defs
     id="defs3344" />
  <sodipodi:namedview
     pagecolor="#ffffff"
     bordercolor="#666666"
     borderopacity="1"
     objecttolerance="10"
     gridtolerance="10"
     guidetolerance="10"
     inkscape:pageopacity="0"
     inkscape:pageshadow="2"
     inkscape:window-width="1545"
     inkscape:window-height="900"
     id="namedview3342"
     showgrid="false"
     inkscape:zoom="17.666667"
     inkscape:cx="14.349057"
     inkscape:cy="112.30189"
     inkscape:window-x="124"
     inkscape:window-y="0"
     inkscape:window-maximized="0"
     inkscape:current-layer="svg3336" />
  <path
     d="m -12,-12 48,0 0,48 -48,0 z"
     id="path3338"
     inkscape:connector-curvature="0"
     style="fill:none" />
  <path
     d="M 8,21 20,12 8,3 8,21 Z M 12,-8 C 0.96,-8 -8,0.96 -8,12 -8,23.04 0.96,32 12,32 23.04,32 32,23.04 32,12 32,0.96 23.04,-8 12,-8 Z m 0,36 C 3.18,28 -4,20.82 -4,12 -4,3.18 3.18,-4 12,-4 c 8.82,0 16,7.18 16,16 0,8.82 -7.18,16 -16,16 z"
     id="path3340"
     inkscape:connector-curvature="0" />
</svg>
